<svg width="1300" height="1299" xmlns="http://www.w3.org/2000/svg" xmlns:xlink="http://www.w3.org/1999/xlink" xml:space="preserve" overflow="hidden"><defs><clipPath id="clip0"><rect x="115" y="98" width="1300" height="1299"/></clipPath><clipPath id="clip1"><rect x="148" y="412" width="1234" height="672"/></clipPath><clipPath id="clip2"><rect x="148" y="412" width="1234" height="672"/></clipPath><clipPath id="clip3"><rect x="148" y="412" width="1234" height="672"/></clipPath><radialGradient cx="942.524" cy="279.896" r="760.124" gradientUnits="userSpaceOnUse" spreadMethod="pad" id="fill4" gradientTransform="scale(1.1854 1.1854)"><stop offset="0" stop-color="#021192"/><stop offset="0.007" stop-color="#021192"/><stop offset="0.03" stop-color="#021096"/><stop offset="0.057" stop-color="#010CB4"/><stop offset="0.084" stop-color="#0008CE"/><stop offset="0.111" stop-color="#0006D7"/><stop offset="0.138" stop-color="#0004E1"/><stop offset="0.165" stop-color="#0001FA"/><stop offset="0.191" stop-color="#0000FE"/><stop offset="0.216" stop-color="#0F1EFF"/><stop offset="1" stop-color="#00FFFF" stop-opacity="0"/></radialGradient></defs><g clip-path="url(#clip0)" transform="translate(-115 -98)"><path d="M115 314.505C115 194.932 211.933 98 331.505 98L1198.5 98C1318.07 98 1415 194.932 1415 314.505L1415 1180.5C1415 1300.07 1318.07 1397 1198.5 1397L331.505 1397C211.933 1397 115 1300.07 115 1180.5Z" fill="#FFFFFF" fill-rule="evenodd"/><g clip-path="url(#clip1)"><g clip-path="url(#clip2)"><g clip-path="url(#clip3)"><path d="M872.216 433.5C855.146 437.412 810.22 439.664 810.22 439.664L804.53 457.445C804.53 457.445 826.934 455.549 843.292 457.208 843.292 457.208 848.627 456.615 849.219 463.254 849.456 469.418 848.745 476.056 848.745 476.056 848.745 476.056 848.39 480.086 842.7 481.035 836.536 482.102 794.335 483.643 794.335 483.643L787.46 506.758C787.46 506.758 784.971 512.092 790.661 510.551 795.995 509.129 840.21 500.831 846.019 502.016 852.183 503.557 859.058 511.736 857.043 519.323 854.672 528.569 810.575 556.782 783.667 554.766 783.667 554.766 769.561 555.715 757.588 536.63 746.445 518.493 761.856 483.998 761.856 483.998 761.856 483.998 754.862 467.877 759.959 462.542 759.959 462.542 763.041 459.816 771.813 459.105L782.6 436.701C782.6 436.701 770.272 437.531 762.922 428.522 756.047 419.868 755.573 415.956 760.789 413.585 766.36 410.859 817.688 401.494 853.013 402.68 853.013 402.68 865.341 401.494 875.891 422.832 875.772 422.832 880.988 431.485 872.216 433.5ZM739.333 519.56C734.828 530.229 722.856 541.609 708.038 534.496 693.34 527.384 669.987 479.612 669.987 479.612 669.987 479.612 661.097 461.831 659.437 462.187 659.437 462.187 657.54 458.749 656.355 478.19 655.17 497.63 656.592 535.444 648.887 541.371 641.538 547.298 632.647 544.928 628.024 537.934 623.875 531.058 622.097 514.7 624.349 486.013 627.076 457.327 633.714 426.743 642.249 417.142 650.784 407.658 657.659 414.534 660.267 417.023 660.267 417.023 671.647 427.336 690.495 457.682L693.814 463.254C693.814 463.254 710.883 491.94 712.661 491.822 712.661 491.822 714.084 493.126 715.269 492.177 717.047 491.703 716.336 482.457 716.336 482.457 716.336 482.457 712.78 451.281 697.251 398.412 697.251 398.412 694.88 391.774 696.54 385.61 698.081 379.327 704.364 382.291 704.364 382.291 704.364 382.291 728.546 394.382 740.163 433.737 751.661 473.448 743.837 508.891 739.333 519.56ZM620.556 418.446C618.541 422.476 617.355 428.284 607.161 429.825 607.161 429.825 509.603 436.464 504.98 443.339 504.98 443.339 501.542 447.369 506.876 448.555 512.211 449.622 534.259 452.585 544.928 453.178 556.307 453.296 594.714 453.652 608.465 470.84 608.465 470.84 616.644 479.019 616.289 497.512 615.933 516.478 612.614 523.116 605.264 529.992 597.559 536.393 531.414 566.028 488.74 520.508 488.74 520.508 469.062 498.579 495.497 481.983 495.497 481.983 514.581 470.485 563.064 483.998 563.064 483.998 577.763 489.332 577.052 494.667 576.222 500.357 564.961 506.402 548.602 506.047 532.718 505.572 521.101 497.986 523.353 499.171 525.487 500.001 506.284 489.925 500.357 496.8 494.43 503.083 495.852 506.995 501.661 510.907 516.478 519.323 573.733 516.359 590.803 497.393 590.803 497.393 597.559 489.688 587.246 483.405 576.933 477.478 547.417 473.922 535.919 473.33 524.894 472.737 483.88 473.448 477.953 462.542 477.953 462.542 472.026 455.193 478.545 434.33 485.421 412.519 533.192 404.102 553.818 402.206 553.818 402.206 610.599 400.19 621.03 411.807 620.912 411.807 622.334 414.534 620.556 418.446ZM459.342 546.35C452.467 551.447 437.886 549.195 433.737 543.505 429.588 538.408 428.166 518.138 428.996 486.369 429.825 454.245 430.537 414.415 437.412 408.133 444.761 401.731 449.266 407.303 452.111 411.689 455.193 415.956 458.868 420.698 459.697 430.774 460.409 440.85 462.78 493.718 462.78 493.718 462.78 493.718 465.862 541.371 459.342 546.35ZM474.159 375.89C454.126 382.528 440.375 380.276 428.759 375.297 423.661 384.188 420.698 386.914 416.786 387.507 411.096 388.099 405.999 378.972 405.051 376.008 404.102 373.756 401.376 369.963 404.695 360.954 393.315 350.759 392.485 337.009 394.382 327.763 397.227 317.094 416.43 276.553 474.871 271.812 474.871 271.812 503.439 269.678 508.299 284.97L509.129 284.97C509.129 284.97 536.867 285.088 536.274 309.745 535.919 334.519 505.454 365.34 474.159 375.89ZM419.631 321.006C413.704 330.489 413.467 336.179 416.193 340.091 422.95 329.778 435.278 313.538 453.415 301.21 439.427 302.395 427.692 308.441 419.631 321.006ZM500.357 305.122C481.983 307.848 453.533 332.504 440.02 352.656 460.764 356.449 497.393 355.027 513.633 321.954 513.515 321.954 521.338 301.447 500.357 305.122ZM999.172 496.089C988.148 515.293 957.209 555.359 915.957 545.995 902.325 579.067 890.945 612.377 884.426 662.401 884.426 662.401 883.003 672.121 874.943 668.683 867 665.838 853.724 652.562 851.116 634.188 848.271 610.006 859.058 569.11 880.988 522.286 874.587 511.855 870.201 496.919 873.994 475.7 873.994 475.7 879.566 436.345 919.039 400.783 919.039 400.783 923.781 396.634 926.507 397.938 929.589 399.242 928.167 412.044 925.678 418.209 923.188 424.373 905.526 454.956 905.526 454.956 905.526 454.956 894.502 475.582 897.584 491.822 918.328 459.935 965.507 395.567 994.786 415.838 1004.63 422.832 1009.13 438.123 1009.13 454.6 1009.01 469.181 1005.57 484.591 999.172 496.089ZM990.637 445.591C990.637 445.591 988.978 432.908 976.65 446.895 965.981 458.631 946.778 480.798 931.249 510.788 947.489 509.01 963.136 500.12 967.878 495.615 975.583 488.74 993.482 470.248 990.637 445.591ZM415.127 461.713C412.874 490.399 401.85 538.645 323.732 562.471 272.167 578 223.448 570.532 196.895 563.775 196.302 574.326 195.117 578.83 193.457 580.608 191.205 582.86 174.372 592.581 165.126 578.83 160.977 572.31 158.843 560.456 157.658 549.906 97.9139 522.405 70.4127 482.813 69.3458 481.035 68.0419 479.731 54.4098 465.506 68.0419 448.081 80.8442 432.315 122.689 416.549 160.384 410.148 161.688 377.905 165.482 353.604 169.986 342.462 175.439 329.541 182.314 341.158 188.241 349.93 193.22 356.449 196.183 384.543 196.421 406.947 221.077 405.762 235.657 407.54 263.158 412.519 298.957 419.038 322.902 437.293 320.769 458.038 319.228 478.427 300.498 486.843 293.386 487.436 285.918 488.029 274.301 482.694 274.301 482.694 266.359 478.901 273.708 475.582 283.31 471.433 293.742 466.336 291.371 461.12 291.371 461.12 287.459 449.74 240.991 441.798 194.761 441.798 194.524 467.284 195.828 509.603 196.421 534.259 228.782 540.423 252.964 539.238 252.964 539.238 252.964 539.238 371.03 535.919 374.586 460.527 378.261 385.017 256.876 312.59 167.141 289.593 77.5251 266.122 26.79 282.48 22.404 284.733 17.6624 287.103 22.0484 287.815 22.0484 287.815 22.0484 287.815 26.9085 288.526 35.3249 291.371 44.2154 294.216 37.34 298.839 37.34 298.839 22.0484 303.699 4.86013 300.617 1.54102 293.623-1.7781 286.629 3.79327 280.347 10.1944 271.338 16.5956 261.854 23.5894 262.21 23.5894 262.21 134.424 223.803 269.441 293.268 269.441 293.268 395.923 357.398 417.497 432.552 415.127 461.713ZM80.6071 457.801C68.0419 463.965 76.6953 472.855 76.6953 472.855 100.285 498.223 129.327 514.107 156.947 523.946 160.147 480.205 159.673 464.795 160.029 442.746 116.88 445.71 91.9869 452.585 80.6071 457.801Z" fill="#01147C" transform="matrix(1 0 0 1.00037 148 413)"/><path d="M1233.88 448.792 1233.88 464.439C1233.88 467.877 1231.15 470.603 1227.72 470.603L1153.16 470.603C1153.16 474.515 1153.27 477.953 1153.27 481.153 1153.27 504.268 1152.33 523.116 1150.07 544.335 1149.72 547.535 1147.11 549.906 1144.03 549.906L1127.91 549.906C1126.25 549.906 1124.71 549.195 1123.64 548.01 1122.57 546.824 1121.98 545.165 1122.22 543.505 1124.47 522.405 1125.54 503.794 1125.54 481.153 1125.54 477.834 1125.54 474.396 1125.42 470.603L1051.69 470.603C1048.25 470.603 1045.52 467.877 1045.52 464.439L1045.52 448.792C1045.52 445.354 1048.25 442.628 1051.69 442.628L1124.35 442.628C1122.81 417.142 1119.73 392.604 1114.75 367.711 1114.51 366.17 1114.87 364.629 1115.82 363.443 1116.76 362.258 1118.19 361.547 1119.73 361.547L1137.15 361.547C1139.88 361.547 1142.13 363.443 1142.72 366.17 1147.58 391.893 1150.67 416.905 1152.21 442.628L1227.72 442.628C1231.04 442.628 1233.88 445.473 1233.88 448.792Z" fill="#01147C" transform="matrix(1 0 0 1.00037 148 413)"/><path d="M1132.41 324.681C1093.89 229.967 1028.81 149.242 944.17 91.1571 857.517 31.7687 755.929 0.35562 650.428 0.35562 475.937 0.35562 314.012 87.0082 217.402 232.22 216.335 233.761 216.098 235.776 216.691 237.554 217.284 239.45 218.706 240.754 220.484 241.347L233.998 245.97C234.827 246.207 235.657 246.326 236.368 246.326 238.858 246.326 241.229 245.022 242.651 243.007 286.985 177.81 346.966 123.637 416.193 86.1785 487.673 47.5345 568.636 27.0271 650.31 27.0271 749.053 27.0271 844.241 56.1879 925.796 111.19 1005.34 164.889 1067.1 239.925 1104.44 328 1105.5 330.608 1108.11 332.386 1110.96 332.386L1127.08 332.386C1128.97 332.386 1130.75 331.437 1131.7 329.896 1132.89 328.355 1133.12 326.459 1132.41 324.681ZM236.368 242.295C236.013 242.295 235.657 242.177 235.302 242.058 235.657 242.177 236.013 242.295 236.368 242.295L236.606 242.295C236.606 242.295 236.487 242.295 236.368 242.295ZM1107.64 330.252C1107.99 330.489 1108.35 330.726 1108.7 330.845 1108.35 330.608 1107.99 330.489 1107.64 330.252Z" fill="url(#fill4)" transform="matrix(1 0 0 1.00037 148 413)"/></g></g></g></g></svg>