<?xml version="1.0" encoding="utf-8"?>
<!-- Generator: Adobe Illustrator 16.0.0, SVG Export Plug-In . SVG Version: 6.00 Build 0)  -->
<!DOCTYPE svg PUBLIC "-//W3C//DTD SVG 1.1//EN" "http://www.w3.org/Graphics/SVG/1.1/DTD/svg11.dtd">
<svg version="1.1" id="Capa_1" xmlns="http://www.w3.org/2000/svg" xmlns:xlink="http://www.w3.org/1999/xlink" x="0px" y="0px"
	 width="205.334px" height="212px" viewBox="537.313 0 205.334 212" enable-background="new 537.313 0 205.334 212"
	 xml:space="preserve">
<path fill="#F1A208" d="M676.645,66.25C670.641,29.274,656.479,3.313,640,3.313s-30.641,25.962-36.645,62.938H676.645z M600.25,106
	c0,9.192,0.497,18.012,1.366,26.5h76.726c0.87-8.488,1.367-17.308,1.367-26.5s-0.497-18.012-1.367-26.5h-76.726
	C600.747,87.988,600.25,96.808,600.25,106z M734.696,66.25c-11.843-28.115-35.816-49.853-65.422-58.631
	c10.103,13.996,17.06,35.071,20.703,58.631H734.696z M610.685,7.619c-29.564,8.778-53.58,30.517-65.381,58.631h44.719
	C593.625,42.69,600.581,21.614,610.685,7.619z M739.127,79.5h-47.493C692.503,88.195,693,97.098,693,106s-0.497,17.805-1.366,26.5
	h47.451c2.277-8.488,3.562-17.308,3.562-26.5S741.362,87.988,739.127,79.5z M587,106c0-8.902,0.497-17.805,1.366-26.5h-47.493
	c-2.235,8.488-3.561,17.308-3.561,26.5s1.325,18.012,3.561,26.5h47.452C587.497,123.805,587,114.902,587,106z M603.355,145.75
	c6.004,36.976,20.165,62.938,36.645,62.938s30.641-25.962,36.645-62.938H603.355z M669.315,204.381
	c29.564-8.777,53.58-30.516,65.422-58.631h-44.719C686.375,169.311,679.419,190.386,669.315,204.381z M545.304,145.75
	c11.843,28.115,35.816,49.854,65.422,58.631c-10.103-13.995-17.06-35.07-20.703-58.631H545.304z"/>
</svg>
