<svg width="1299" height="1299" xmlns="http://www.w3.org/2000/svg" xmlns:xlink="http://www.w3.org/1999/xlink" xml:space="preserve" overflow="hidden"><defs><clipPath id="clip0"><rect x="1453" y="98" width="1299" height="1299"/></clipPath><clipPath id="clip1"><rect x="1485" y="641" width="1235" height="213"/></clipPath><clipPath id="clip2"><rect x="1485" y="641" width="1235" height="213"/></clipPath><clipPath id="clip3"><rect x="1485" y="641" width="1235" height="213"/></clipPath><linearGradient x1="3442.68" y1="-116.943" x2="4134.83" y2="-116.943" gradientUnits="userSpaceOnUse" spreadMethod="pad" id="fill4"><stop offset="0" stop-color="#991EEB"/><stop offset="0.399" stop-color="#5822B4"/><stop offset="0.727" stop-color="#5822B4"/><stop offset="1" stop-color="#991EEB"/></linearGradient><clipPath id="clip5"><path d="M2307.17 718.444C2306.05 667.932 2270.21 641.224 2226.3 641.224 2202.22 641.224 2180.49 649.27 2165.71 664.915 2150.93 649.27 2129.2 641.224 2105.12 641.224 2061.21 641.224 2025.37 668.044 2024.25 718.556 2024.25 718.668 2024.25 718.78 2024.25 718.891L2024.25 834.108C2024.25 844.724 2032.87 853.218 2043.4 853.218L2061.54 853.218C2063.34 853.218 2064.79 851.765 2064.79 849.977L2064.79 718.78 2064.79 718.78C2065.58 693.859 2083.27 680.672 2105.12 680.672 2126.96 680.672 2144.65 693.859 2145.44 718.78L2145.44 718.78 2145.44 833.996C2145.44 844.613 2154.06 853.106 2164.59 853.106L2182.73 853.106C2184.53 853.106 2185.98 851.653 2185.98 849.865L2185.98 718.668 2185.98 718.668C2186.77 693.747 2204.46 680.56 2226.3 680.56 2248.15 680.56 2265.84 693.747 2266.63 718.668L2266.63 718.668 2266.63 833.884C2266.63 844.501 2275.25 852.994 2285.78 852.994L2303.92 852.994C2305.72 852.994 2307.17 851.541 2307.17 849.753L2307.17 718.556C2307.28 718.668 2307.17 718.556 2307.17 718.444ZM2715.66 644.464 2684.85 644.464C2676.34 644.464 2668.39 648.711 2663.57 655.751L2629.52 706.04C2625.04 712.633 2615.41 712.633 2610.93 706.04L2576.88 655.751C2572.18 648.711 2564.11 644.464 2555.6 644.464L2524.8 644.464C2522.9 644.464 2521.77 646.588 2522.78 648.152L2583.49 738.001C2587.86 744.483 2587.86 752.976 2583.49 759.457L2522.78 849.306C2521.66 850.871 2522.9 852.994 2524.8 852.994L2555.6 852.994C2564.11 852.994 2572.06 848.747 2576.88 841.707L2610.93 791.419C2615.41 784.825 2625.04 784.825 2629.52 791.419L2663.57 841.707C2668.28 848.747 2676.34 852.994 2684.85 852.994L2715.66 852.994C2717.56 852.994 2718.68 850.871 2717.67 849.306L2656.85 759.569C2652.48 753.088 2652.48 744.594 2656.85 738.113L2717.56 648.264C2718.68 646.699 2717.56 644.464 2715.66 644.464ZM2508.89 644.464 2490.75 644.464C2481.56 644.464 2473.84 650.946 2471.93 659.551 2455.8 647.258 2435.53 641 2413.69 641 2360.6 641 2317.48 677.878 2317.48 747.5 2317.48 817.122 2360.49 854 2413.69 854 2435.42 854 2455.47 847.854 2471.6 835.784 2472.49 845.507 2480.67 853.218 2490.75 853.218L2508.89 853.218C2510.69 853.218 2512.14 851.765 2512.14 849.977L2512.14 647.705C2512.03 645.917 2510.69 644.464 2508.89 644.464ZM2413.69 814.44C2381.99 814.44 2356.23 791.307 2356.23 747.612 2356.23 703.917 2381.99 680.784 2413.69 680.784 2445.39 680.784 2471.15 703.917 2471.15 747.612 2471.15 791.307 2445.39 814.44 2413.69 814.44Z"/></clipPath><radialGradient cx="1494.39" cy="-276.441" r="164.575" gradientUnits="userSpaceOnUse" spreadMethod="pad" id="fill6" gradientTransform="matrix(0.750975 0 0 0.977609 2487.06 113.98)"><stop offset="0" stop-color="#7BA7F2" stop-opacity="0.5"/><stop offset="1" stop-color="#7BA7F2" stop-opacity="0"/></radialGradient><clipPath id="clip7"><path d="M2307.17 718.444C2306.05 667.932 2270.21 641.224 2226.3 641.224 2202.22 641.224 2180.49 649.27 2165.71 664.915 2150.93 649.27 2129.2 641.224 2105.12 641.224 2061.21 641.224 2025.37 668.044 2024.25 718.556 2024.25 718.668 2024.25 718.78 2024.25 718.891L2024.25 834.108C2024.25 844.724 2032.87 853.218 2043.4 853.218L2061.54 853.218C2063.34 853.218 2064.79 851.765 2064.79 849.977L2064.79 718.78 2064.79 718.78C2065.58 693.859 2083.27 680.672 2105.12 680.672 2126.96 680.672 2144.65 693.859 2145.44 718.78L2145.44 718.78 2145.44 833.996C2145.44 844.613 2154.06 853.106 2164.59 853.106L2182.73 853.106C2184.53 853.106 2185.98 851.653 2185.98 849.865L2185.98 718.668 2185.98 718.668C2186.77 693.747 2204.46 680.56 2226.3 680.56 2248.15 680.56 2265.84 693.747 2266.63 718.668L2266.63 718.668 2266.63 833.884C2266.63 844.501 2275.25 852.994 2285.78 852.994L2303.92 852.994C2305.72 852.994 2307.17 851.541 2307.17 849.753L2307.17 718.556C2307.28 718.668 2307.17 718.556 2307.17 718.444ZM2715.66 644.464 2684.85 644.464C2676.34 644.464 2668.39 648.711 2663.57 655.751L2629.52 706.04C2625.04 712.633 2615.41 712.633 2610.93 706.04L2576.88 655.751C2572.18 648.711 2564.11 644.464 2555.6 644.464L2524.8 644.464C2522.9 644.464 2521.77 646.588 2522.78 648.152L2583.49 738.001C2587.86 744.483 2587.86 752.976 2583.49 759.457L2522.78 849.306C2521.66 850.871 2522.9 852.994 2524.8 852.994L2555.6 852.994C2564.11 852.994 2572.06 848.747 2576.88 841.707L2610.93 791.419C2615.41 784.825 2625.04 784.825 2629.52 791.419L2663.57 841.707C2668.28 848.747 2676.34 852.994 2684.85 852.994L2715.66 852.994C2717.56 852.994 2718.68 850.871 2717.67 849.306L2656.85 759.569C2652.48 753.088 2652.48 744.594 2656.85 738.113L2717.56 648.264C2718.68 646.699 2717.56 644.464 2715.66 644.464ZM2508.89 644.464 2490.75 644.464C2481.56 644.464 2473.84 650.946 2471.93 659.551 2455.8 647.258 2435.53 641 2413.69 641 2360.6 641 2317.48 677.878 2317.48 747.5 2317.48 817.122 2360.49 854 2413.69 854 2435.42 854 2455.47 847.854 2471.6 835.784 2472.49 845.507 2480.67 853.218 2490.75 853.218L2508.89 853.218C2510.69 853.218 2512.14 851.765 2512.14 849.977L2512.14 647.705C2512.03 645.917 2510.69 644.464 2508.89 644.464ZM2413.69 814.44C2381.99 814.44 2356.23 791.307 2356.23 747.612 2356.23 703.917 2381.99 680.784 2413.69 680.784 2445.39 680.784 2471.15 703.917 2471.15 747.612 2471.15 791.307 2445.39 814.44 2413.69 814.44Z"/></clipPath><radialGradient cx="3339.86" cy="-386.742" r="227.558" gradientUnits="userSpaceOnUse" spreadMethod="pad" id="fill8" gradientTransform="matrix(1.11752 0 0 0.791318 0 283.876)"><stop offset="0" stop-color="#7BA7F2"/><stop offset="0.2" stop-color="#7BA7F2"/><stop offset="1" stop-color="#7BA7F2" stop-opacity="0"/></radialGradient><clipPath id="clip9"><path d="M2307.17 718.444C2306.05 667.932 2270.21 641.224 2226.3 641.224 2202.22 641.224 2180.49 649.27 2165.71 664.915 2150.93 649.27 2129.2 641.224 2105.12 641.224 2061.21 641.224 2025.37 668.044 2024.25 718.556 2024.25 718.668 2024.25 718.78 2024.25 718.891L2024.25 834.108C2024.25 844.724 2032.87 853.218 2043.4 853.218L2061.54 853.218C2063.34 853.218 2064.79 851.765 2064.79 849.977L2064.79 718.78 2064.79 718.78C2065.58 693.859 2083.27 680.672 2105.12 680.672 2126.96 680.672 2144.65 693.859 2145.44 718.78L2145.44 718.78 2145.44 833.996C2145.44 844.613 2154.06 853.106 2164.59 853.106L2182.73 853.106C2184.53 853.106 2185.98 851.653 2185.98 849.865L2185.98 718.668 2185.98 718.668C2186.77 693.747 2204.46 680.56 2226.3 680.56 2248.15 680.56 2265.84 693.747 2266.63 718.668L2266.63 718.668 2266.63 833.884C2266.63 844.501 2275.25 852.994 2285.78 852.994L2303.92 852.994C2305.72 852.994 2307.17 851.541 2307.17 849.753L2307.17 718.556C2307.28 718.668 2307.17 718.556 2307.17 718.444ZM2715.66 644.464 2684.85 644.464C2676.34 644.464 2668.39 648.711 2663.57 655.751L2629.52 706.04C2625.04 712.633 2615.41 712.633 2610.93 706.04L2576.88 655.751C2572.18 648.711 2564.11 644.464 2555.6 644.464L2524.8 644.464C2522.9 644.464 2521.77 646.588 2522.78 648.152L2583.49 738.001C2587.86 744.483 2587.86 752.976 2583.49 759.457L2522.78 849.306C2521.66 850.871 2522.9 852.994 2524.8 852.994L2555.6 852.994C2564.11 852.994 2572.06 848.747 2576.88 841.707L2610.93 791.419C2615.41 784.825 2625.04 784.825 2629.52 791.419L2663.57 841.707C2668.28 848.747 2676.34 852.994 2684.85 852.994L2715.66 852.994C2717.56 852.994 2718.68 850.871 2717.67 849.306L2656.85 759.569C2652.48 753.088 2652.48 744.594 2656.85 738.113L2717.56 648.264C2718.68 646.699 2717.56 644.464 2715.66 644.464ZM2508.89 644.464 2490.75 644.464C2481.56 644.464 2473.84 650.946 2471.93 659.551 2455.8 647.258 2435.53 641 2413.69 641 2360.6 641 2317.48 677.878 2317.48 747.5 2317.48 817.122 2360.49 854 2413.69 854 2435.42 854 2455.47 847.854 2471.6 835.784 2472.49 845.507 2480.67 853.218 2490.75 853.218L2508.89 853.218C2510.69 853.218 2512.14 851.765 2512.14 849.977L2512.14 647.705C2512.03 645.917 2510.69 644.464 2508.89 644.464ZM2413.69 814.44C2381.99 814.44 2356.23 791.307 2356.23 747.612 2356.23 703.917 2381.99 680.784 2413.69 680.784 2445.39 680.784 2471.15 703.917 2471.15 747.612 2471.15 791.307 2445.39 814.44 2413.69 814.44Z"/></clipPath><radialGradient cx="3479.59" cy="-189.161" r="123.773" gradientUnits="userSpaceOnUse" spreadMethod="pad" id="fill10" gradientTransform="scale(1.11752 1.11752)"><stop offset="0" stop-color="#7BA7F2"/><stop offset="1" stop-color="#7BA7F2" stop-opacity="0"/></radialGradient></defs><g clip-path="url(#clip0)" transform="translate(-1453 -98)"><path d="M1453 314.504C1453 194.932 1549.93 98 1669.5 98L2535.5 98C2655.07 98 2752 194.932 2752 314.504L2752 1180.5C2752 1300.07 2655.07 1397 2535.5 1397L1669.5 1397C1549.93 1397 1453 1300.07 1453 1180.5Z" fill="#FFFFFF" fill-rule="evenodd"/><g clip-path="url(#clip1)"><g clip-path="url(#clip2)"><g clip-path="url(#clip3)"><path d="M3347.65-33.7576 3290.99-33.7576 3290.99-114.554 3254.34-114.554 3254.34-33.7576 3196.22-33.7576 3196.22-242.176 3254.22-242.176 3254.22-164.396 3290.88-164.396 3290.88-242.176 3347.54-242.176 3347.54-33.7576ZM3607.36-32.8636C3665.36-32.8636 3712.74-81.1406 3712.74-139.922 3712.74-199.598 3665.36-245.752 3607.36-245.752 3548.58-245.752 3518.85-203.062 3511.7-185.629 3511.7-211.444 3485.89-242.287 3455.94-242.287L3359.16-242.287 3359.16-33.7576 3449.23-33.7576C3485.89-33.7576 3511.7-65.0483 3511.7-92.5393 3519.86-75.553 3548.69-32.8636 3607.36-32.8636ZM3442.08-117.572C3450.46-117.572 3457.17-109.414 3457.17-100.138 3457.17-90.416 3450.46-82.2581 3442.08-82.2581L3413.25-82.2581 3413.25-117.572ZM3442.08-195.798C3450.46-195.798 3457.17-187.64 3457.17-178.365 3457.17-169.09 3450.46-160.932 3442.08-160.932L3413.25-160.932 3413.25-195.798ZM3480.19-139.922C3486.89-140.369 3497.84-148.08 3501.98-152.662 3500.41-147.074 3500.41-129.418 3501.98-123.83 3497.4-130.647 3486.89-138.693 3480.19-139.922ZM3554.5-139.922C3554.5-169.313 3578.42-193.005 3607.81-192.893 3637.31-192.669 3660.78-168.643 3660.44-139.14 3660-110.084 3636.53-86.7282 3607.47-86.7282 3578.19-86.7282 3554.5-110.42 3554.5-139.922ZM3607.36-98.1269C3629.93-98.1269 3648.93-116.678 3648.93-139.922 3648.93-163.167 3629.93-181.494 3607.36-181.494 3584.12-181.494 3565.57-163.167 3565.57-139.922 3565.57-116.678 3584.12-98.1269 3607.36-98.1269Z" transform="matrix(1.00226 0 0 1 -1717.51 886.863)"/><path d="M3724.93-146.06C3723.81-196.572 3688.05-223.281 3644.24-223.281 3620.21-223.281 3598.53-215.235 3583.78-199.59 3569.03-215.235 3547.35-223.281 3523.32-223.281 3479.52-223.281 3443.76-196.46 3442.64-145.948 3442.64-145.837 3442.64-145.725 3442.64-145.613L3442.64-30.3966C3442.64-19.7801 3451.24-11.287 3461.75-11.287L3479.85-11.287C3481.64-11.287 3483.09-12.7398 3483.09-14.5278L3483.09-145.725 3483.09-145.725C3483.88-170.646 3501.53-183.832 3523.32-183.832 3545.12-183.832 3562.77-170.646 3563.56-145.725L3563.56-145.725 3563.56-30.5084C3563.56-19.8919 3572.16-11.3987 3582.67-11.3987L3600.77-11.3987C3602.56-11.3987 3604.01-12.8515 3604.01-14.6395L3604.01-145.837 3604.01-145.837C3604.79-170.757 3622.45-183.944 3644.24-183.944 3666.03-183.944 3683.69-170.757 3684.47-145.837L3684.47-145.837 3684.47-30.6201C3684.47-20.0037 3693.08-11.5105 3703.58-11.5105L3721.69-11.5105C3723.47-11.5105 3724.93-12.9633 3724.93-14.7513L3724.93-145.948C3725.04-145.837 3724.93-145.948 3724.93-146.06ZM4132.49-220.04 4101.75-220.04C4093.26-220.04 4085.33-215.794 4080.52-208.753L4046.55-158.465C4042.08-151.871 4032.47-151.871 4028-158.465L3994.03-208.753C3989.33-215.794 3981.29-220.04 3972.79-220.04L3942.06-220.04C3940.16-220.04 3939.04-217.917 3940.05-216.352L4000.62-126.504C4004.98-120.022 4004.98-111.529 4000.62-105.047L3940.05-15.1983C3938.93-13.6338 3940.16-11.5105 3942.06-11.5105L3972.79-11.5105C3981.29-11.5105 3989.22-15.7571 3994.03-22.7975L4028-73.086C4032.47-79.6794 4042.08-79.6794 4046.55-73.086L4080.52-22.7975C4085.22-15.7571 4093.26-11.5105 4101.75-11.5105L4132.49-11.5105C4134.39-11.5105 4135.5-13.6338 4134.5-15.1983L4073.82-104.935C4069.46-111.417 4069.46-119.91 4073.82-126.392L4134.39-216.241C4135.5-217.805 4134.39-220.04 4132.49-220.04ZM3926.19-220.04 3908.09-220.04C3898.92-220.04 3891.21-213.559 3889.31-204.954 3873.22-217.246 3852.99-223.505 3831.2-223.505 3778.23-223.505 3735.21-186.626 3735.21-117.005 3735.21-47.383 3778.12-10.5047 3831.2-10.5047 3852.88-10.5047 3872.89-16.6511 3888.98-28.7203 3889.87-18.9979 3898.03-11.287 3908.09-11.287L3926.19-11.287C3927.98-11.287 3929.43-12.7398 3929.43-14.5278L3929.43-216.799C3929.32-218.587 3927.98-220.04 3926.19-220.04ZM3831.2-50.065C3799.58-50.065 3773.87-73.1977 3773.87-116.893 3773.87-160.588 3799.58-183.721 3831.2-183.721 3862.83-183.721 3888.53-160.588 3888.53-116.893 3888.53-73.1977 3862.83-50.065 3831.2-50.065Z" fill="url(#fill4)" transform="matrix(1.00226 0 0 1 -1426.19 864.505)"/><g clip-path="url(#clip5)"><path d="M3732.86-156.23C3732.86-67.3542 3677.52 4.69359 3609.26 4.69359 3541 4.69359 3485.66-67.3542 3485.66-156.23 3485.66-245.105 3541-317.153 3609.26-317.153 3677.52-317.153 3732.86-245.105 3732.86-156.23Z" fill="url(#fill6)" transform="matrix(1.00226 0 0 1 -1426.19 864.616)"/></g><g clip-path="url(#clip7)"><path d="M3986.76-22.1269C3986.76 77.3025 3872.89 157.906 3732.41 157.906 3591.94 157.906 3478.06 77.3025 3478.06-22.1269 3478.06-121.556 3591.94-202.16 3732.41-202.16 3872.89-202.16 3986.76-121.556 3986.76-22.1269Z" fill="url(#fill8)" transform="matrix(1.00226 0 0 1 -1426.19 864.616)"/></g><g clip-path="url(#clip9)"><path d="M4026.88-211.435C4026.88-135.027 3964.94-73.086 3888.53-73.086 3812.12-73.086 3750.18-135.027 3750.18-211.435 3750.18-287.843 3812.12-349.785 3888.53-349.785 3964.94-349.785 4026.88-287.843 4026.88-211.435Z" fill="url(#fill10)" transform="matrix(1.00226 0 0 1 -1426.19 864.616)"/></g></g></g></g></g></svg>