<svg width="1299" height="1299" xmlns="http://www.w3.org/2000/svg" xmlns:xlink="http://www.w3.org/1999/xlink" xml:space="preserve" overflow="hidden"><defs><clipPath id="clip0"><rect x="2810" y="98" width="1299" height="1299"/></clipPath><clipPath id="clip1"><rect x="2843" y="364" width="1234" height="768"/></clipPath><clipPath id="clip2"><rect x="2843" y="364" width="1234" height="768"/></clipPath><clipPath id="clip3"><rect x="2843" y="364" width="1234" height="768"/></clipPath></defs><g clip-path="url(#clip0)" transform="translate(-2810 -98)"><path d="M2810 314.504C2810 194.932 2906.93 98 3026.5 98L3892.5 98C4012.07 98 4109 194.932 4109 314.504L4109 1180.5C4109 1300.07 4012.07 1397 3892.5 1397L3026.5 1397C2906.93 1397 2810 1300.07 2810 1180.5Z" fill="#FFFFFF" fill-rule="evenodd"/><g clip-path="url(#clip1)"><g clip-path="url(#clip2)"><g clip-path="url(#clip3)"><path d="M350.196 270.637C347.163 269.378 342.19 263.799 350.462 248.262L369.679 208.099C370.263 206.885 368.86 205.366 367.984 206.397L351.182 223.291C343.231 231.589 329.745 254.913 327.133 259.23L306.72 292.974C308.236 292.926 309.505 294.118 309.553 295.634 309.568 296.133 309.449 296.627 309.204 297.063L290.546 328.401C285.991 336.173 294.176 341.605 295.285 339.817 324.61 292.582 341.667 296.353 341.667 296.353L351.457 273.684C351.972 272.547 351.469 271.209 350.333 270.693 350.291 270.672 350.244 270.655 350.196 270.637ZM416.868-124.029C249.201-124.029 113.28 11.8251 113.28 179.41 113.192 244.285 134.005 307.464 172.634 359.584 185.369 354.087 192.446 345.87 197.502 339.577L254.028 267.319C255.218 265.796 256.772 264.598 258.549 263.835L267.058 260.175 360.002 142.339 373.478 131.793 401.172 93.2645C401.888 92.2677 402.76 91.3907 403.755 90.669L415.838 81.8897C418.823 79.721 422.855 79.6865 425.875 81.8058L440.537 92.0926C448.316 97.5487 454.621 104.845 458.893 113.331L517.623 216.441C518.582 218.408 520.211 219.969 522.217 220.842 533.735 226.573 540.771 227.586 555.845 243.953 562.879 251.584 593.701 286.039 636.897 339.587 643.175 348.178 651.579 354.987 661.284 359.349 699.796 307.269 720.537 244.184 720.446 179.41 720.446 11.8238 584.532-124.029 416.868-124.029ZM195.153 196.135 175.469 189.745 163.309 206.472 163.309 185.8 143.624 179.409 163.309 173.018 163.309 152.339 175.469 169.07 195.153 162.68 182.991 179.41 195.153 196.135ZM190.486 263.795 184.093 283.462 177.699 263.795 157.011 263.795 173.747 251.64 167.354 231.974 184.091 244.13 200.83 231.974 194.436 251.64 211.175 263.795 190.486 263.795ZM194.437 107.168 200.831 126.834 184.093 114.678 167.355 126.834 173.748 107.168 157.012 95.0124 177.7 95.0124 184.094 75.3468 190.489 95.0124 211.177 95.0124 194.437 107.168ZM227.659 62.6817 215.506 45.9507 195.821 52.3406 207.982 35.6121 195.821 18.8823 215.506 25.2723 227.666 8.54251 227.666 29.2222 247.35 35.601 227.666 41.9934 227.666 62.6718 227.659 62.6817ZM279.399-9.71194 273.005 9.95495 266.611-9.71071 245.922-9.71071 262.66-21.8664 256.268-41.5332 273.005-29.3801 289.741-41.5357 283.349-21.8528 300.087-9.69714 279.397-9.69714 279.397-9.71194ZM344.597-42.9173 332.436-26.1863 332.436-46.8598 312.751-53.2497 332.436-59.6421 332.436-80.3206 344.597-63.5896 364.272-69.9795 352.112-53.2497 364.274-36.5212 344.597-42.9173ZM427.213-61.8724 433.607-42.2068 416.868-54.3624 400.13-42.2068 406.516-61.8638 389.78-74.0195 410.469-74.0195 416.865-93.6851 423.258-74.0195 443.946-74.0195 427.213-61.8724ZM501.293-46.8598 501.293-26.1814 489.137-42.9124 469.454-36.5212 481.615-53.2497 469.456-69.9795 489.14-63.5896 501.295-80.3206 501.295-59.6421 520.98-53.2497 501.293-46.8598ZM638.575 162.68 658.258 169.07 670.415 152.339 670.415 173.018 690.1 179.409 670.415 185.8 670.415 206.477 658.258 189.749 638.575 196.138 650.749 179.409 638.575 162.68ZM560.729 9.95989 554.332-9.707 533.645-9.707 550.377-21.8627 543.998-41.5308 560.729-29.3751 577.46-41.5283 571.08-21.8627 587.813-9.707 567.125-9.707 560.729 9.95989ZM606.077 62.6866 606.077 42.0094 586.392 35.617 606.077 29.2382 606.077 8.54991 618.232 25.2797 637.916 18.8897 625.761 35.6195 637.916 52.348 618.232 45.9581 606.077 62.6866ZM643.239 95.0186 649.639 75.353 656.036 95.0186 676.723 95.0186 659.992 107.174 666.39 126.84 649.641 114.684 632.909 126.84 639.307 107.174 622.557 95.0186 643.239 95.0186ZM656.035 263.795 649.638 283.462 643.238 263.795 622.551 263.795 639.3 251.64 632.903 231.974 649.635 244.13 666.384 231.974 659.986 251.64 676.717 263.795 656.035 263.795ZM526.829 354.774C528.287 352.655 530.657 346.842 526.209 336.07L512.775 299.96C510.952 295.35 514.945 292.553 517.624 295.584 517.624 295.584 543.014 324.847 549.575 337.066L562.096 357.843C572.867 358.539 602.594 359.349 631.209 359.349 628.328 356.488 625.667 353.414 623.244 350.154 574.416 289.643 543.448 255.983 543.138 255.65 533.243 244.897 528.668 242.831 521.12 239.394 520.027 238.898 518.842 238.363 517.622 237.782L517.622 246.968C517.697 247.588 517.253 248.152 516.631 248.226 516.129 248.285 515.647 248.004 515.453 247.537L443.665 121.485 443.465 121.087C440.472 115.149 436.059 110.042 430.619 106.219L423.616 101.299 389.368 180.273C393.46 180.272 396.78 183.588 396.782 187.68 396.783 188.693 396.576 189.696 396.173 190.626L364.53 263.791 393.576 263.791C404.801 263.791 415.921 265.976 426.31 270.231L433.966 273.368C433.966 273.368 410.867 320.871 410.867 345.885 410.9 350.434 411.536 354.958 412.753 359.34L465.998 359.34 463.532 344.346C484.419 349.009 505.55 352.493 526.828 354.781L526.828 354.774ZM115.988 431.746C115.988 382.88 64.157 359.349 2.57941 359.349-63.291 359.349-123.729 388.532-145.912 433.782-152.034 445.838-155.216 459.174-155.199 472.696-155.479 484.389-152.243 495.896-145.912 505.729-136.408 519.763-119.432 528.585-94.5313 528.585-63.9683 528.585-39.747 511.838-39.747 482.654-39.747 482.654-39.298 474.514-48.8027 474.514-56.499 474.514-58.5393 479.941-58.3111 482.654-57.1737 505.506-70.7603 523.834-94.9828 523.834-122.139 523.834-133.467 500.756-133.467 476.097-133.467 425.641-95.4368 392.152-55.823 377.675-37.3107 370.684-17.6512 367.227 2.13655 367.487 46.956 367.487 83.6278 384.686 83.6278 430.845 83.6278 469.301 51.2588 502.11 12.5455 505.053L14.1294 499.851C22.0551 471.566 31.788 440.573 47.6296 417.719 48.5412 416.354 50.1214 414.098 51.9335 411.838L49.6724 409.12C46.285 411.175 43.032 413.441 39.9308 415.906-34.3094 473.83-36.5644 636.73-135.495 636.73-138.902 636.73-142.303 636.501-145.679 636.05-166.275 632.658-177.148 618.853-177.148 599.63-177.148 595.784-175.787 590.577-175.787 587.64-175.63 582.175-179.933 577.619-185.398 577.46-185.441 577.459-185.482 577.459-185.522 577.459L-186.651 577.459C-195.477 577.459-199.1 584.463-199.327 594.425-200.003 623.16-178.732 639.897-145.902 643.07-142.284 643.295-138.661 643.519-134.813 643.519-57.6265 643.519-10.3164 585.146 9.83283 514.328 20.0382 513.132 30.114 511.014 39.9358 507.999 75.7095 498.031 115.988 474.061 115.988 431.746ZM851.237 448.713 824.063 448.713 817.958 462.969 807.313 486.951 794.646 486.951 790.781 495.098 803.921 495.098 788.066 530.169C776.765 554.829 759.103 579.039 748.915 579.039 746.655 579.039 745.288 578.129 745.288 575.875 745.288 573.621 745.963 571.57 748.459 565.238 751.631 557.766 756.843 546.909 760.689 538.992 766.339 527.455 775.398 509.58 775.398 500.756 775.398 491.931 769.747 484.916 758.648 484.916 746.2 484.916 734.88 492.39 724.455 503.24L731.254 486.951 705.683 486.951 684.849 534.465C676.483 551.208 659.495 579.038 648.851 579.038 646.591 579.038 645.679 577.677 645.679 575.417 645.9 573.386 646.434 571.399 647.266 569.532 648.176 567.496 660.625 538.311 660.625 538.311L683.263 486.499 655.65 486.499 633.686 536.949C626.907 552.564 609.702 579.035 598.601 579.035 596.668 579.224 594.945 577.812 594.756 575.874 594.756 575.874 594.756 575.874 594.756 575.87L594.756 574.96C594.756 572.248 596.798 567.267 598.384 563.645L609.922 538.31 633.688 486.497 606.312 486.497 600.862 498.262C596.799 506.179 589.999 515.456 579.138 515.456 573.926 515.456 571.446 513.425 570.316 511.385 568.731 493.963 557.632 484.685 541.336 484.685 518.699 484.685 502.625 498.034 491.979 514.327 485.006 525.556 479.528 537.648 475.689 550.295 465.952 566.364 455.772 578.811 447.62 578.811 445.581 578.811 444.22 577.673 444.22 574.962 444.22 572.247 446.939 566.141 447.845 563.87L465.728 525.862C470.708 514.102 474.111 506.409 474.111 498.714 474.111 490.567 468.461 484.68 459.165 484.68 446.262 484.68 432.224 492.152 421.134 504.365 421.51 502.427 421.661 500.45 421.585 498.479 421.585 489.427 417.062 484.674 407.776 484.674 396.009 484.674 383.786 491.696 372.695 504.36L379.94 486.703 355.035 486.703 333.988 534.231C324.029 556.632 307.957 578.811 298.899 578.811 296.865 578.811 295.505 577.671 295.505 574.96 295.505 570.663 300.26 560.028 302.068 555.728L329.914 492.606C331.95 487.857 318.592 484.911 301.615 484.911 284.186 484.911 266.302 493.513 253.177 504.595 243.896 512.284 237.104 516.134 233.702 516.134 232.593 516.371 231.5 515.664 231.261 514.556 231.229 514.406 231.214 514.253 231.216 514.1 231.216 510.252 240.497 499.387 240.497 491.019 240.497 487.173 238.462 484.682 233.249 484.682 223.296 484.682 211.519 494.186 202.918 504.138L210.163 486.713 185.72 486.713 164.671 534.231C154.709 556.632 138.184 579.94 129.129 579.94 127.09 579.94 125.738 578.811 125.738 576.091 125.738 571.793 130.266 561.39 132.754 555.954L160.598 492.606C162.635 487.857 149.277 484.911 132.297 484.911 107.171 484.911 82.7211 501.88 69.8204 519.303 55.5615 538.076 45.831 557.989 45.6016 574.282 45.3795 587.404 52.1617 595.548 65.7471 595.548 80.9151 595.548 93.1423 583.559 100.155 574.506 99.7395 576.297 99.4348 578.11 99.2436 579.938 99.2436 588.983 102.867 595.547 113.956 595.547 123.688 595.547 136.593 587.401 147.006 574.504L138.621 593.738 165.102 593.738 191.136 534.685C199.758 515.457 209.492 505.506 212.198 505.506 212.821 505.386 213.423 505.793 213.544 506.416 213.557 506.488 213.564 506.562 213.564 506.636 213.564 508.673 209.492 514.11 209.492 519.079 209.492 524.049 212.2 527.9 219.454 527.9 225.104 527.9 231.446 525.184 237.107 521.559 223.752 539.667 214.689 558.67 214.689 574.286 214.466 587.409 221.249 595.552 234.837 595.552 249.095 595.552 262.451 581.976 269.694 572.925 269.421 575.027 269.271 577.142 269.243 579.26 269.243 588.089 274.225 595.552 284.409 595.552 295.724 595.552 304.782 588.534 316.1 574.739L307.717 593.743 334.875 593.743 359.772 537.403C370.639 512.968 385.349 499.84 392.594 499.84 394.404 499.654 396.026 500.969 396.215 502.781 396.215 502.784 396.215 502.788 396.216 502.792L396.216 503.465C395.917 506.214 395.151 508.892 393.953 511.382L358.22 593.968 386.063 593.968 411.418 536.495C422.278 511.838 434.28 499.84 443.333 499.84 446.048 499.84 447.185 501.207 447.185 504.14 446.943 507.291 446.097 510.366 444.694 513.201L420.243 565.234C417.992 570.242 416.614 575.596 416.168 581.068 416.168 588.989 420.467 596.014 432.696 596.014 448.553 596.014 460.539 584.023 474.116 566.149L474.116 569.993C475.252 584.247 483.173 596.692 504.223 596.692 529.121 596.692 549.278 579.495 561.49 552.125 566.109 542.502 569.098 532.174 570.329 521.569 573.055 522.952 576.102 523.58 579.15 523.392 583.264 523.438 587.318 522.424 590.924 520.447L586.624 529.719C581.63 540.13 576.198 551.67 571.915 561.405 569.203 567.161 567.588 573.373 567.16 579.724 567.16 589.449 572.59 596.469 583.672 596.469 594.755 596.469 609.936 586.061 620.8 571.355L621.036 571.355C620.308 574.396 619.925 577.504 619.888 580.629 619.888 588.777 622.384 596.471 633.702 596.471 646.844 596.471 657.015 586.966 666.983 574.972L658.6 593.98 685.992 593.98 707.958 544.204C720.407 516.149 732.855 499.184 744.39 499.184 746.372 499.113 748.067 500.6 748.255 502.576L748.255 503.244C748.255 508 741.456 520.897 735.35 533.792 729.682 545.557 725.381 554.603 722.446 561.625 719.722 567.538 718.111 573.901 717.69 580.398 717.69 588.992 722.446 595.555 733.092 595.555 748.929 595.555 765.005 580.17 773.59 568.629 771.653 574.161 770.589 579.961 770.436 585.82 770.436 601.665 779.93 609.582 793.29 609.582 802.167 609.515 810.796 606.667 817.969 601.441 828.377 594.197 836.761 583.339 843.778 573.384L839.022 568.855C832.461 578.134 825.208 586.96 817.733 592.39 813.795 595.719 808.853 597.631 803.698 597.82 798.049 597.82 794.421 594.876 794.421 587.642 794.421 580.41 797.811 570.669 803.025 557.544 803.243 557.323 810.716 540.576 817.733 524.517 823.62 510.932 829.507 497.815 830.638 495.1L848.519 495.1 852.143 486.954 834.484 486.954 851.237 448.713ZM79.0993 579.264C75.253 579.264 72.5367 577.907 72.5367 572.929 72.7612 559.578 83.8498 535.823 97.6671 516.815 107.398 503.692 120.073 493.968 133.655 493.968L116.45 532.423C103.546 561.389 89.5119 579.264 79.0993 579.264ZM248.421 579.264C244.576 579.264 241.86 577.907 241.636 572.929 241.861 559.578 252.951 535.823 266.763 516.815 276.491 503.692 289.171 493.968 302.753 493.968L285.544 532.425C272.419 562.072 259.064 579.265 248.417 579.265L248.421 579.265ZM549.029 504.378C548.354 519.08 535.449 554.597 520.285 575.874 514.18 584.469 508.966 586.955 504.447 586.955 498.103 586.955 496.281 581.748 497.191 574.059 498.541 560.712 509.641 529.489 525.042 507.994 532.058 498.265 536.816 494.191 542.246 494.191 547.679 494.193 549.264 498.72 549.029 504.378ZM971.513 486.95 996.446 429.405 966.939 429.405 942.005 486.95 879.289 486.95 868.827 511.083 931.562 511.083 906.629 568.628 936.136 568.628 961.071 511.083 1023.79 511.083 1034.23 486.95 971.513 486.95Z" fill="#0064FF" transform="matrix(1 0 0 1.00059 3042.56 488.102)"/></g></g></g></g></svg>