<svg width="1299" height="1300" xmlns="http://www.w3.org/2000/svg" xmlns:xlink="http://www.w3.org/1999/xlink" xml:space="preserve" overflow="hidden"><defs><clipPath id="clip0"><rect x="2168" y="412" width="1299" height="1300"/></clipPath><clipPath id="clip1"><rect x="2200" y="885" width="1235" height="353"/></clipPath><clipPath id="clip2"><rect x="2200" y="885" width="1235" height="353"/></clipPath><clipPath id="clip3"><rect x="2200" y="885" width="1235" height="353"/></clipPath><linearGradient x1="424.657" y1="336.837" x2="683.72" y2="78.0111" gradientUnits="userSpaceOnUse" spreadMethod="pad" id="fill4"><stop offset="0" stop-color="#FA1660"/><stop offset="0.28" stop-color="#FA1660"/><stop offset="0.78" stop-color="#FF7D17"/><stop offset="1" stop-color="#FF7D17"/></linearGradient></defs><g clip-path="url(#clip0)" transform="translate(-2168 -412)"><path d="M2168 628.505C2168 508.932 2264.93 412 2384.5 412L3250.5 412C3370.07 412 3467 508.932 3467 628.505L3467 1494.5C3467 1614.07 3370.07 1711 3250.5 1711L2384.5 1711C2264.93 1711 2168 1614.07 2168 1494.5Z" fill="#FFFFFF" fill-rule="evenodd"/><g clip-path="url(#clip1)"><g clip-path="url(#clip2)"><g clip-path="url(#clip3)"><path d="M937.191 165.624 937.191 79.5844 989.796 79.5844 989.796 165.624 1068.49 165.624 1068.49 222.984 989.796 222.984 989.796 308.794 937.191 308.794 937.191 222.984 858.283 222.984 858.283 165.624Z" fill="#241C32" transform="matrix(1.13757 0 0 1 2217.48 881.949)"/><path d="M815.425 98.8918 853.062 98.8918C875.721 98.8918 890.218 110.605 890.218 131.056 890.218 153.33 875.721 167.828 853.062 167.828L815.425 167.828ZM880.233 212.665C919.214 207.673 951.378 174.165 951.378 131.536 951.378 76.2331 913.741 45.8935 853.062 45.8935L755.13 45.8935 755.13 324.231 815.425 324.231 815.425 212.665 890.218 324.135 960.019 324.135Z" fill="#241C32" transform="matrix(1 0 0 1.00088 2201.03 886)"/><path d="M392.975 100.62 392.975 45.7975 209.401 45.7975 209.401 100.62 270.56 100.62 270.56 324.039 331.816 324.039 331.816 100.62Z" fill="#241C32" transform="matrix(1 0 0 1.00088 2201.03 886.096)"/><path d="M96.1075 148.338C77.9613 140.177 71.1445 131.152 71.1445 119.342 71.1445 105.709 82.4738 94.3793 100.62 94.8593 116.462 95.2434 128.751 103.884 137.392 124.335L189.527 101.196C175.029 64.0396 145.553 42.3411 98.0277 42.3411 47.7177 42.3411 10.5613 75.465 10.5613 119.822 10.5613 150.162 25.539 174.165 60.8713 191.927L99.8519 211.417C121.551 222.363 132.016 230.428 132.016 246.269 132.016 263.455 117.998 275.745 99.8519 275.745 80.3616 275.745 62.6955 264.8 54.5345 240.413L0 256.255C12.6735 302.052 50.31 328.839 99.2759 328.839 152.274 328.839 193.079 294.851 193.079 245.885 193.079 208.249 172.725 183.286 133.648 165.716Z" fill="#241C32" transform="matrix(1 0 0 1.00088 2201.03 886)"/><path d="M738.808 134.224 597.575 134.224 553.89 0 510.205 134.224 368.972 134.224 482.266 217.37C482.266 217.37 537.664 180.886 604.776 167.156 505.788 240.221 452.022 312.709 452.022 312.709L452.022 312.709 452.022 312.709 439.636 351.69 553.89 268.736 668.144 351.69 624.555 217.37Z" fill="url(#fill4)" transform="matrix(1 0 0 1.00088 2201.03 886)"/></g></g></g></g></svg>