<?xml version="1.0" encoding="utf-8"?>
<!-- Generator: Adobe Illustrator 16.0.0, SVG Export Plug-In . SVG Version: 6.00 Build 0)  -->
<!DOCTYPE svg PUBLIC "-//W3C//DTD SVG 1.1//EN" "http://www.w3.org/Graphics/SVG/1.1/DTD/svg11.dtd">
<svg version="1.1" id="Capa_1" xmlns="http://www.w3.org/2000/svg" xmlns:xlink="http://www.w3.org/1999/xlink" x="0px" y="0px"
	 width="265px" height="212px" viewBox="507.5 0 265 212" enable-background="new 507.5 0 265 212" xml:space="preserve">
<path fill="#F1A208" d="M752.625,0h-225.25C516.398,0,507.5,8.898,507.5,19.875v132.5c0,10.977,8.898,19.875,19.875,19.875h99.375
	v13.25h-72.875c-3.659,0-6.625,2.967-6.625,6.625v13.25c0,3.658,2.966,6.625,6.625,6.625h172.25c3.659,0,6.625-2.967,6.625-6.625
	v-13.25c0-3.658-2.966-6.625-6.625-6.625H653.25v-13.25h99.375c10.977,0,19.875-8.898,19.875-19.875v-132.5
	C772.5,8.898,763.602,0,752.625,0z M746,145.75H534V26.5h212V145.75z"/>
</svg>
